<svg width="46" height="60" viewBox="0 0 46 60" fill="none" xmlns="http://www.w3.org/2000/svg">
<mask id="path-1-inside-1_1_389" fill="white">
<path d="M39.7676 59.3328H5.65433C5.44323 59.3328 5.23998 59.249 5.08558 59.0984C4.93118 58.9478 4.83712 58.7415 4.82237 58.5212L2.42002 22.6758C2.41199 22.5564 2.42755 22.4365 2.46573 22.3236C2.5039 22.2107 2.56388 22.1073 2.64192 22.0197C2.71996 21.9321 2.8144 21.8623 2.91936 21.8145C3.02431 21.7668 3.13754 21.7422 3.25198 21.7422H42.17C42.2844 21.7422 42.3976 21.7668 42.5026 21.8145C42.6075 21.8623 42.702 21.9321 42.78 22.0197C42.858 22.1073 42.918 22.2107 42.9562 22.3236C42.9943 22.4365 43.0099 22.5564 43.0018 22.6758L40.5995 58.5212C40.5848 58.7415 40.4907 58.9478 40.3363 59.0984C40.182 59.249 39.9787 59.3328 39.7676 59.3328ZM6.43196 57.5877H38.9901L41.2756 23.4873H4.14649L6.43196 57.5877Z"/>
</mask>
<path d="M39.7676 59.3328H5.65433C5.44323 59.3328 5.23998 59.249 5.08558 59.0984C4.93118 58.9478 4.83712 58.7415 4.82237 58.5212L2.42002 22.6758C2.41199 22.5564 2.42755 22.4365 2.46573 22.3236C2.5039 22.2107 2.56388 22.1073 2.64192 22.0197C2.71996 21.9321 2.8144 21.8623 2.91936 21.8145C3.02431 21.7668 3.13754 21.7422 3.25198 21.7422H42.17C42.2844 21.7422 42.3976 21.7668 42.5026 21.8145C42.6075 21.8623 42.702 21.9321 42.78 22.0197C42.858 22.1073 42.918 22.2107 42.9562 22.3236C42.9943 22.4365 43.0099 22.5564 43.0018 22.6758L40.5995 58.5212C40.5848 58.7415 40.4907 58.9478 40.3363 59.0984C40.182 59.249 39.9787 59.3328 39.7676 59.3328ZM6.43196 57.5877H38.9901L41.2756 23.4873H4.14649L6.43196 57.5877Z" fill="#D2153D"/>
<path d="M39.7676 59.3328L39.7676 56.3328H39.7676V59.3328ZM5.65433 59.3328V56.3328H5.65429L5.65433 59.3328ZM4.82237 58.5212L7.81568 58.3209L7.81566 58.3206L4.82237 58.5212ZM2.42002 22.6758L5.41331 22.4752L5.41327 22.4746L2.42002 22.6758ZM3.25198 21.7422L3.25142 24.7422H3.25198V21.7422ZM42.17 21.7422V24.7422H42.1706L42.17 21.7422ZM43.0018 22.6758L40.0086 22.4742L40.0085 22.4752L43.0018 22.6758ZM40.5995 58.5212L37.6062 58.3206L37.6061 58.3212L40.5995 58.5212ZM6.43196 57.5877L3.43868 57.7883L3.6263 60.5877H6.43196V57.5877ZM38.9901 57.5877V60.5877H41.7958L41.9834 57.7883L38.9901 57.5877ZM41.2756 23.4873L44.2689 23.6879L44.4834 20.4873H41.2756V23.4873ZM4.14649 23.4873V20.4873H0.938694L1.1532 23.6879L4.14649 23.4873ZM39.7676 56.3328H5.65433V62.3328H39.7676V56.3328ZM5.65429 56.3328C6.2448 56.3328 6.78813 56.5683 7.18044 56.951L2.99072 61.2459C3.69183 61.9298 4.64166 62.3328 5.65438 62.3328L5.65429 56.3328ZM7.18044 56.951C7.56885 57.3299 7.78235 57.8229 7.81568 58.3209L1.82907 58.7216C1.8919 59.6602 2.29351 60.5657 2.99072 61.2459L7.18044 56.951ZM7.81566 58.3206L5.41331 22.4752L-0.573262 22.8764L1.82909 58.7218L7.81566 58.3206ZM5.41327 22.4746C5.43157 22.7469 5.39642 23.0221 5.3076 23.2847L-0.376148 21.3625C-0.541317 21.8509 -0.607583 22.3658 -0.573222 22.877L5.41327 22.4746ZM5.3076 23.2847C5.21872 23.5475 5.07613 23.7973 4.88167 24.0156L0.402169 20.0238C0.0516284 20.4172 -0.210915 20.8739 -0.376148 21.3625L5.3076 23.2847ZM4.88167 24.0156C4.68692 24.2341 4.44335 24.4171 4.1615 24.5453L1.67721 19.0838C1.18546 19.3075 0.753011 19.6301 0.402169 20.0238L4.88167 24.0156ZM4.1615 24.5453C3.87923 24.6737 3.56899 24.7422 3.25142 24.7422L3.25254 18.7422C2.70608 18.7421 2.16939 18.8599 1.67721 19.0838L4.1615 24.5453ZM3.25198 24.7422H42.17V18.7422H3.25198V24.7422ZM42.1706 24.7422C41.853 24.7422 41.5427 24.6737 41.2604 24.5453L43.7448 19.0838C43.2526 18.8599 42.7159 18.7421 42.1694 18.7422L42.1706 24.7422ZM41.2604 24.5453C40.9784 24.417 40.7348 24.234 40.5401 24.0154L45.0199 20.024C44.6691 19.6303 44.2366 19.3075 43.7448 19.0838L41.2604 24.5453ZM40.5401 24.0154C40.3457 23.7972 40.2031 23.5473 40.1142 23.2844L45.7981 21.3628C45.6329 20.8741 45.3704 20.4174 45.0199 20.024L40.5401 24.0154ZM40.1142 23.2844C40.0254 23.0218 39.9903 22.7465 40.0086 22.4742L45.995 22.8774C46.0295 22.3662 45.9633 21.8512 45.7981 21.3628L40.1142 23.2844ZM40.0085 22.4752L37.6062 58.3206L43.5928 58.7218L45.9951 22.8764L40.0085 22.4752ZM37.6061 58.3212C37.6394 57.8232 37.8529 57.3301 38.2413 56.9511L42.4314 61.2457C43.1285 60.5655 43.5301 59.6598 43.5928 58.7212L37.6061 58.3212ZM38.2413 56.9511C38.6337 56.5683 39.1771 56.3328 39.7676 56.3328L39.7676 62.3328C40.7804 62.3328 41.7302 61.9297 42.4314 61.2457L38.2413 56.9511ZM6.43196 60.5877H38.9901V54.5877H6.43196V60.5877ZM41.9834 57.7883L44.2689 23.6879L38.2823 23.2866L35.9968 57.3871L41.9834 57.7883ZM41.2756 20.4873H4.14649V26.4873H41.2756V20.4873ZM1.1532 23.6879L3.43868 57.7883L9.42525 57.3871L7.13977 23.2867L1.1532 23.6879Z" fill="#D2153D" mask="url(#path-1-inside-1_1_389)"/>
<path d="M44.5879 23.4872H0.833984C0.612798 23.4872 0.400671 23.3953 0.244269 23.2316C0.0878662 23.068 0 22.8461 0 22.6146V17.6492C0 17.4177 0.0878662 17.1958 0.244269 17.0322C0.400671 16.8685 0.612798 16.7766 0.833984 16.7766H44.5879C44.8091 16.7766 45.0212 16.8685 45.1776 17.0322C45.334 17.1958 45.4219 17.4177 45.4219 17.6492V22.6146C45.4219 22.8461 45.334 23.068 45.1776 23.2316C45.0212 23.3953 44.8091 23.4872 44.5879 23.4872ZM1.66797 21.7421H43.7539V18.5217H1.66797V21.7421Z" fill="#D2153D"/>
<mask id="path-4-inside-2_1_389" fill="white">
<path d="M42.8208 18.5216H2.52441C2.30323 18.5216 2.0911 18.4297 1.9347 18.2661C1.7783 18.1024 1.69043 17.8805 1.69043 17.6491C1.69043 15.5479 2.49082 13.5173 3.89703 12.0245C4.30402 8.06775 7.46803 4.99853 11.2828 4.88174C11.8689 3.433 12.8502 2.1972 14.104 1.32891C15.3579 0.460616 16.8286 -0.00162335 18.3322 4.28366e-06C20.4948 4.28366e-06 22.5234 0.939604 23.9732 2.59531C24.3663 2.53112 24.7624 2.49871 25.1557 2.49871C26.194 2.49752 27.2218 2.71791 28.176 3.1464C29.1302 3.57489 29.9908 4.20248 30.7053 4.9908C31.1262 4.91627 31.5523 4.87866 31.9792 4.87837C34.8122 4.87837 37.3564 6.46814 38.7012 9.0521C41.7242 10.2026 43.731 13.1816 43.731 16.5782C43.731 16.9765 43.7023 17.3801 43.6457 17.7776C43.6162 17.9845 43.5167 18.1734 43.3653 18.31C43.2139 18.4465 43.0207 18.5217 42.8208 18.5216ZM3.41499 16.7766H42.0599C42.0619 16.7104 42.0629 16.6442 42.0629 16.5782C42.0629 13.8236 40.3761 11.4204 37.8655 10.598C37.7571 10.5625 37.6569 10.5042 37.5709 10.4268C37.4848 10.3494 37.4148 10.2544 37.3651 10.1476C36.3521 7.97377 34.2884 6.62332 31.9792 6.62332C31.5184 6.62332 31.0517 6.68079 30.592 6.79409C30.4412 6.83123 30.2835 6.82369 30.1365 6.77231C29.9895 6.72092 29.8591 6.62772 29.76 6.50316C28.617 5.06721 26.9387 4.24378 25.1557 4.24378C24.717 4.24378 24.2732 4.29564 23.8365 4.39773C23.6844 4.4333 23.5257 4.42355 23.3786 4.36957C23.2315 4.31559 23.1018 4.21954 23.0042 4.09234C21.8596 2.60054 20.1568 1.74508 18.3322 1.74508C17.0739 1.74379 15.8471 2.15774 14.8266 2.92803C13.8061 3.69831 13.0438 4.78571 12.6482 6.03548C12.5906 6.21626 12.4781 6.37238 12.3278 6.48004C12.1775 6.5877 11.9977 6.641 11.8158 6.6318C11.7135 6.62631 11.6111 6.62348 11.5087 6.62332C8.36064 6.62332 5.73585 9.19569 5.53331 12.4796C5.51959 12.7019 5.42509 12.9104 5.26918 13.0622C4.24361 14.0603 3.60156 15.3561 3.41499 16.7766ZM42.1701 46.3635C42.0452 46.3637 41.9218 46.3344 41.8091 46.2779C41.6965 46.2214 41.5974 46.1392 41.5193 46.0372L22.0604 20.6782C21.9261 20.4973 21.8651 20.2685 21.8906 20.041C21.9162 19.8135 22.0261 19.6057 22.1968 19.4623C22.3675 19.3189 22.5853 19.2515 22.8031 19.2745C23.0209 19.2976 23.2213 19.4094 23.361 19.5856L42.82 44.9447C42.9184 45.073 42.9802 45.2277 42.9982 45.3911C43.0162 45.5544 42.9897 45.7198 42.9217 45.8681C42.8538 46.0163 42.7472 46.1415 42.6142 46.2292C42.4813 46.3168 42.3273 46.3634 42.1701 46.3635Z"/>
</mask>
<path d="M42.8208 18.5216H2.52441C2.30323 18.5216 2.0911 18.4297 1.9347 18.2661C1.7783 18.1024 1.69043 17.8805 1.69043 17.6491C1.69043 15.5479 2.49082 13.5173 3.89703 12.0245C4.30402 8.06775 7.46803 4.99853 11.2828 4.88174C11.8689 3.433 12.8502 2.1972 14.104 1.32891C15.3579 0.460616 16.8286 -0.00162335 18.3322 4.28366e-06C20.4948 4.28366e-06 22.5234 0.939604 23.9732 2.59531C24.3663 2.53112 24.7624 2.49871 25.1557 2.49871C26.194 2.49752 27.2218 2.71791 28.176 3.1464C29.1302 3.57489 29.9908 4.20248 30.7053 4.9908C31.1262 4.91627 31.5523 4.87866 31.9792 4.87837C34.8122 4.87837 37.3564 6.46814 38.7012 9.0521C41.7242 10.2026 43.731 13.1816 43.731 16.5782C43.731 16.9765 43.7023 17.3801 43.6457 17.7776C43.6162 17.9845 43.5167 18.1734 43.3653 18.31C43.2139 18.4465 43.0207 18.5217 42.8208 18.5216ZM3.41499 16.7766H42.0599C42.0619 16.7104 42.0629 16.6442 42.0629 16.5782C42.0629 13.8236 40.3761 11.4204 37.8655 10.598C37.7571 10.5625 37.6569 10.5042 37.5709 10.4268C37.4848 10.3494 37.4148 10.2544 37.3651 10.1476C36.3521 7.97377 34.2884 6.62332 31.9792 6.62332C31.5184 6.62332 31.0517 6.68079 30.592 6.79409C30.4412 6.83123 30.2835 6.82369 30.1365 6.77231C29.9895 6.72092 29.8591 6.62772 29.76 6.50316C28.617 5.06721 26.9387 4.24378 25.1557 4.24378C24.717 4.24378 24.2732 4.29564 23.8365 4.39773C23.6844 4.4333 23.5257 4.42355 23.3786 4.36957C23.2315 4.31559 23.1018 4.21954 23.0042 4.09234C21.8596 2.60054 20.1568 1.74508 18.3322 1.74508C17.0739 1.74379 15.8471 2.15774 14.8266 2.92803C13.8061 3.69831 13.0438 4.78571 12.6482 6.03548C12.5906 6.21626 12.4781 6.37238 12.3278 6.48004C12.1775 6.5877 11.9977 6.641 11.8158 6.6318C11.7135 6.62631 11.6111 6.62348 11.5087 6.62332C8.36064 6.62332 5.73585 9.19569 5.53331 12.4796C5.51959 12.7019 5.42509 12.9104 5.26918 13.0622C4.24361 14.0603 3.60156 15.3561 3.41499 16.7766ZM42.1701 46.3635C42.0452 46.3637 41.9218 46.3344 41.8091 46.2779C41.6965 46.2214 41.5974 46.1392 41.5193 46.0372L22.0604 20.6782C21.9261 20.4973 21.8651 20.2685 21.8906 20.041C21.9162 19.8135 22.0261 19.6057 22.1968 19.4623C22.3675 19.3189 22.5853 19.2515 22.8031 19.2745C23.0209 19.2976 23.2213 19.4094 23.361 19.5856L42.82 44.9447C42.9184 45.073 42.9802 45.2277 42.9982 45.3911C43.0162 45.5544 42.9897 45.7198 42.9217 45.8681C42.8538 46.0163 42.7472 46.1415 42.6142 46.2292C42.4813 46.3168 42.3273 46.3634 42.1701 46.3635Z" fill="black"/>
<path d="M42.8208 18.5216L42.8209 16.5216H42.8208V18.5216ZM2.52441 18.5216V16.5216V18.5216ZM1.69043 17.6491H3.69043H1.69043ZM3.89703 12.0245L5.35283 13.3958L5.81724 12.9028L5.88654 12.2291L3.89703 12.0245ZM11.2828 4.88174L11.344 6.8808L12.6477 6.84088L13.1368 5.63175L11.2828 4.88174ZM18.3322 4.28366e-06L18.3301 2H18.3322V4.28366e-06ZM23.9732 2.59531L22.4685 3.91287L23.1998 4.74806L24.2955 4.56917L23.9732 2.59531ZM25.1557 2.49871V4.49871L25.1579 4.49871L25.1557 2.49871ZM30.7053 4.9908L29.2234 6.33392L29.9657 7.15291L31.0541 6.96016L30.7053 4.9908ZM31.9792 4.87837V2.87837L31.9779 2.87837L31.9792 4.87837ZM38.7012 9.0521L36.9271 9.97545L37.2785 10.6506L37.9898 10.9213L38.7012 9.0521ZM43.6457 17.7776L41.6656 17.4957L41.6656 17.4958L43.6457 17.7776ZM3.41499 16.7766L1.43202 16.5161L1.13512 18.7766H3.41499V16.7766ZM42.0599 16.7766V18.7766H43.9997L44.059 16.8377L42.0599 16.7766ZM37.8655 10.598L37.2426 12.4985L37.2429 12.4986L37.8655 10.598ZM37.3651 10.1476L39.178 9.30304L39.1779 9.30292L37.3651 10.1476ZM30.592 6.79409L31.0703 8.73608L31.0707 8.73596L30.592 6.79409ZM29.76 6.50316L28.1951 7.74867L28.1954 7.74898L29.76 6.50316ZM23.8365 4.39773L23.3812 2.45024L23.3812 2.45026L23.8365 4.39773ZM23.0042 4.09234L24.5911 2.87502L24.591 2.87489L23.0042 4.09234ZM18.3322 1.74508L18.3302 3.74508H18.3322V1.74508ZM12.6482 6.03548L14.5539 6.64235L14.5549 6.63913L12.6482 6.03548ZM11.8158 6.6318L11.7086 8.62893L11.7148 8.62925L11.8158 6.6318ZM11.5087 6.62332L11.5117 4.62332H11.5087V6.62332ZM5.53331 12.4796L7.52951 12.6027L7.52952 12.6027L5.53331 12.4796ZM5.26918 13.0622L6.66413 14.4954L6.66437 14.4951L5.26918 13.0622ZM42.1701 46.3635L42.169 44.3635H42.1673L42.1701 46.3635ZM41.5193 46.0372L43.1069 44.8209L43.106 44.8196L41.5193 46.0372ZM22.0604 20.6782L20.4547 21.8706L20.4641 21.8832L20.4737 21.8957L22.0604 20.6782ZM23.361 19.5856L24.9477 18.3681L24.9381 18.3555L24.9283 18.3431L23.361 19.5856ZM42.82 44.9447L44.4068 43.7273L44.4067 43.7272L42.82 44.9447ZM42.8208 16.5216H2.52441V20.5216H42.8208V16.5216ZM2.52441 16.5216C2.86358 16.5216 3.16952 16.6634 3.38049 16.8842L0.488903 19.648C1.01268 20.196 1.74287 20.5216 2.52441 20.5216V16.5216ZM3.38049 16.8842C3.58853 17.1018 3.69043 17.3785 3.69043 17.6491H-0.30957C-0.30957 18.3825 -0.0319397 19.1031 0.488903 19.648L3.38049 16.8842ZM3.69043 17.6491C3.69043 16.0476 4.30299 14.5103 5.35283 13.3958L2.44124 10.6531C0.678643 12.5242 -0.30957 15.0482 -0.30957 17.6491H3.69043ZM5.88654 12.2291C6.19821 9.19899 8.59965 6.96482 11.344 6.8808L11.2216 2.88267C6.33642 3.03224 2.40982 6.93651 1.90753 11.8198L5.88654 12.2291ZM13.1368 5.63175C13.5805 4.53499 14.3176 3.61373 15.2427 2.97314L12.9654 -0.315329C11.3827 0.780669 10.1572 2.331 9.42875 4.13172L13.1368 5.63175ZM15.2427 2.97314C16.1665 2.33338 17.2403 1.99882 18.3301 2L18.3344 -1.99999C16.4169 -2.00207 14.5492 -1.41215 12.9654 -0.315329L15.2427 2.97314ZM18.3322 2C19.9006 2 21.3866 2.67737 22.4685 3.91287L25.4778 1.27774C23.6601 -0.798165 21.0889 -2 18.3322 -2V2ZM24.2955 4.56917C24.5837 4.5221 24.872 4.49871 25.1557 4.49871V0.498707C24.6527 0.498707 24.149 0.540127 23.6509 0.621447L24.2955 4.56917ZM25.1579 4.49871C25.911 4.49784 26.6589 4.65753 27.3567 4.97089L28.9953 1.32191C27.7847 0.778284 26.4771 0.497194 25.1534 0.498708L25.1579 4.49871ZM27.3567 4.97089C28.0548 5.28437 28.691 5.74644 29.2234 6.33392L32.1872 3.64768C31.2907 2.65852 30.2056 1.8654 28.9953 1.32191L27.3567 4.97089ZM31.0541 6.96016C31.3605 6.90591 31.6703 6.87858 31.9805 6.87837L31.9779 2.87837C31.4343 2.87874 30.892 2.92662 30.3566 3.02145L31.0541 6.96016ZM31.9792 6.87837C34.0324 6.87837 35.9107 8.02245 36.9271 9.97545L40.4753 8.12875C38.8021 4.91382 35.592 2.87837 31.9792 2.87837V6.87837ZM37.9898 10.9213C40.1968 11.7613 41.731 13.9679 41.731 16.5782H45.731C45.731 12.3952 43.2515 8.64394 39.4126 7.1829L37.9898 10.9213ZM41.731 16.5782C41.731 16.8814 41.7091 17.1908 41.6656 17.4957L45.6257 18.0595C45.6955 17.5694 45.731 17.0716 45.731 16.5782H41.731ZM41.6656 17.4958C41.7004 17.2514 41.8201 17.0103 42.0258 16.8248L44.7048 19.7951C45.2134 19.3365 45.5321 18.7175 45.6257 18.0594L41.6656 17.4958ZM42.0258 16.8248C42.2338 16.6372 42.5151 16.5216 42.8209 16.5216L42.8207 20.5216C43.5262 20.5217 44.1941 20.2558 44.7048 19.7951L42.0258 16.8248ZM3.41499 18.7766H42.0599V14.7766H3.41499V18.7766ZM44.059 16.8377C44.0617 16.75 44.0629 16.6634 44.0629 16.5782H40.0629C40.0629 16.625 40.0622 16.6707 40.0609 16.7154L44.059 16.8377ZM44.0629 16.5782C44.0629 13.0093 41.8673 9.80432 38.4881 8.69737L37.2429 12.4986C38.8849 13.0365 40.0629 14.638 40.0629 16.5782H44.0629ZM38.4883 8.69744C38.6488 8.75004 38.7912 8.83441 38.9088 8.94023L36.2329 11.9134C36.5226 12.1741 36.8655 12.3749 37.2426 12.4985L38.4883 8.69744ZM38.9088 8.94023C39.0261 9.04583 39.1162 9.17033 39.178 9.30304L35.5522 10.9922C35.7134 11.3384 35.9435 11.6529 36.2329 11.9134L38.9088 8.94023ZM39.1779 9.30292C37.8529 6.45922 35.1036 4.62332 31.9792 4.62332V8.62332C33.4731 8.62332 34.8514 9.48831 35.5522 10.9924L39.1779 9.30292ZM31.9792 4.62332C31.3526 4.62332 30.7253 4.70137 30.1134 4.85222L31.0707 8.73596C31.3781 8.6602 31.6841 8.62332 31.9792 8.62332V4.62332ZM30.1138 4.85211C30.3405 4.79628 30.5783 4.80804 30.7966 4.88438L29.4764 8.66023C29.9887 8.83934 30.5419 8.86619 31.0703 8.73608L30.1138 4.85211ZM30.7966 4.88438C31.0141 4.96042 31.1944 5.09394 31.3245 5.25734L28.1954 7.74898C28.5238 8.1615 28.965 8.48142 29.4764 8.66023L30.7966 4.88438ZM31.3248 5.25766C29.8152 3.36106 27.5683 2.24379 25.1557 2.24379V6.24378C26.3091 6.24378 27.4188 6.77336 28.1951 7.74867L31.3248 5.25766ZM25.1557 2.24379C24.56 2.24379 23.9635 2.3141 23.3812 2.45024L24.2918 6.34521C24.5828 6.27717 24.8739 6.24378 25.1557 6.24378V2.24379ZM23.3812 2.45026C23.6103 2.39669 23.8494 2.41191 24.0675 2.49197L22.6897 6.24717C23.2021 6.43518 23.7585 6.46992 24.2919 6.34519L23.3812 2.45026ZM24.0675 2.49197C24.2848 2.57169 24.4636 2.70881 24.5911 2.87502L21.4173 5.30965C21.74 5.73028 22.1782 6.05949 22.6897 6.24717L24.0675 2.49197ZM24.591 2.87489C23.0814 0.907331 20.8004 -0.254918 18.3322 -0.254918V3.74508C19.5131 3.74508 20.6379 4.29376 21.4174 5.30979L24.591 2.87489ZM18.3343 -0.254917C16.6329 -0.256665 14.9838 0.303582 13.6217 1.33172L16.0315 4.52433C16.7104 4.01189 17.5148 3.74424 18.3302 3.74508L18.3343 -0.254917ZM13.6217 1.33172C12.2611 2.35873 11.259 3.79706 10.7414 5.43184L14.5549 6.63913C14.8287 5.77435 15.3512 5.0379 16.0315 4.52433L13.6217 1.33172ZM10.7424 5.42861C10.8119 5.21042 10.9532 5.00455 11.163 4.85425L13.4926 8.10584C14.003 7.74021 14.3692 7.2221 14.5539 6.64235L10.7424 5.42861ZM11.163 4.85425C11.3746 4.70268 11.6397 4.62034 11.9168 4.63435L11.7148 8.62925C12.3558 8.66166 12.9805 8.47272 13.4926 8.10584L11.163 4.85425ZM11.9231 4.63468C11.7861 4.62732 11.6489 4.62353 11.5117 4.62333L11.5057 8.62332C11.5733 8.62342 11.641 8.62529 11.7086 8.62892L11.9231 4.63468ZM11.5087 4.62332C7.22886 4.62332 3.79998 8.09436 3.5371 12.3564L7.52952 12.6027C7.67172 10.297 9.49241 8.62332 11.5087 8.62332V4.62332ZM3.53711 12.3564C3.5532 12.0957 3.6645 11.8331 3.87398 11.6292L6.66437 14.4951C7.18567 13.9876 7.48598 13.3082 7.52951 12.6027L3.53711 12.3564ZM3.87422 11.6289C2.52128 12.9458 1.67623 14.6568 1.43202 16.5161L5.39796 17.037C5.5269 16.0553 5.96594 15.1749 6.66413 14.4954L3.87422 11.6289ZM42.1673 44.3635C42.3574 44.3632 42.5417 44.4079 42.7055 44.4901L40.9127 48.0658C41.3019 48.2609 41.733 48.3641 42.173 48.3635L42.1673 44.3635ZM42.7055 44.4901C42.869 44.572 43.0046 44.6873 43.1069 44.8209L39.9316 47.2534C40.1902 47.591 40.5239 47.8709 40.9127 48.0658L42.7055 44.4901ZM43.106 44.8196L23.6471 19.4606L20.4737 21.8957L39.9326 47.2547L43.106 44.8196ZM23.666 19.4858C23.8389 19.7186 23.9081 19.9974 23.8781 20.2641L19.9031 19.8179C19.8221 20.5396 20.0132 21.2761 20.4547 21.8706L23.666 19.4858ZM23.8781 20.2641C23.8482 20.5313 23.7169 20.7974 23.4832 20.9937L20.9105 17.9309C20.3353 18.414 19.9842 19.0957 19.9031 19.8179L23.8781 20.2641ZM23.4832 20.9937C23.2462 21.1928 22.9258 21.2987 22.5924 21.2634L23.0138 17.2857C22.2447 17.2042 21.4889 17.445 20.9105 17.9309L23.4832 20.9937ZM22.5924 21.2634C22.2601 21.2282 21.9775 21.0599 21.7938 20.8281L24.9283 18.3431C24.465 17.7589 23.7817 17.367 23.0138 17.2857L22.5924 21.2634ZM21.7743 20.8032L41.2333 46.1623L44.4067 43.7272L24.9477 18.3681L21.7743 20.8032ZM41.2333 46.1622C41.1053 45.9954 41.0315 45.8035 41.0102 45.61L44.9862 45.1721C44.9289 44.6519 44.7315 44.1505 44.4068 43.7273L41.2333 46.1622ZM41.0102 45.61C40.9889 45.4168 41.0195 45.2183 41.1035 45.0351L44.74 46.701C44.9598 46.2212 45.0434 45.6921 44.9862 45.1721L41.0102 45.61ZM41.1035 45.0351C41.1876 44.8514 41.3258 44.6831 41.5135 44.5593L43.7149 47.8991C44.1687 47.6 44.52 47.1813 44.74 46.701L41.1035 45.0351ZM41.5135 44.5593C41.7023 44.4349 41.9298 44.3636 42.169 44.3635L42.1712 48.3635C42.7248 48.3632 43.2602 48.1988 43.7149 47.8991L41.5135 44.5593Z" fill="#D2153D" mask="url(#path-4-inside-2_1_389)"/>
<path d="M19.8516 6.57543C19.7465 6.57536 19.6424 6.55446 19.5448 6.51385C18.5563 6.10276 17.455 6.10276 16.4666 6.51385C16.0382 6.69135 15.5537 6.47184 15.3842 6.02373C15.3028 5.80857 15.3064 5.56838 15.3942 5.35601C15.4821 5.14364 15.647 4.97648 15.8526 4.8913C17.2354 4.31618 18.7761 4.31618 20.1588 4.8913C20.3645 4.97648 20.5294 5.14364 20.6172 5.35601C20.7051 5.56838 20.7087 5.80857 20.6273 6.02373C20.5657 6.18643 20.4588 6.32601 20.3205 6.42438C20.1822 6.52275 20.0188 6.57538 19.8516 6.57543ZM33.0238 12.8957C32.9187 12.8957 32.8146 12.8748 32.717 12.8342C31.7285 12.4231 30.6272 12.4231 29.6387 12.8342C29.5367 12.8775 29.4275 12.8992 29.3173 12.8981C29.2072 12.8971 29.0984 12.8732 28.9971 12.8279C28.8959 12.7826 28.8042 12.7167 28.7274 12.6341C28.6506 12.5516 28.5902 12.4539 28.5497 12.3468C28.5092 12.2396 28.4893 12.1252 28.4913 12.01C28.4933 11.8948 28.517 11.7811 28.5612 11.6756C28.6054 11.57 28.6691 11.4747 28.7487 11.3951C28.8283 11.3154 28.9222 11.2531 29.0249 11.2116C30.4134 10.6367 31.9428 10.6366 33.3311 11.2116C33.5118 11.2862 33.6619 11.4245 33.7556 11.6025C33.8492 11.7806 33.8805 11.9872 33.8441 12.1868C33.8077 12.3865 33.7058 12.5665 33.556 12.6959C33.4063 12.8253 33.218 12.896 33.0238 12.8957ZM7.89844 14.8955C7.67803 14.8955 7.46357 14.802 7.30869 14.6399C7.1525 14.4761 7.06469 14.2543 7.06445 14.0229C7.06445 13.7936 7.15262 13.568 7.30869 13.4059C7.46357 13.2439 7.67803 13.1504 7.89844 13.1504C8.11766 13.1504 8.33211 13.2439 8.48818 13.4059C8.64307 13.568 8.73242 13.7936 8.73242 14.0229C8.73242 14.2523 8.64307 14.4779 8.48818 14.6399C8.33119 14.8027 8.11943 14.8944 7.89844 14.8955ZM22.7112 15.6434C22.492 15.6434 22.2763 15.5499 22.1214 15.3878C21.9657 15.2237 21.878 15.0021 21.8772 14.7708C21.8772 14.5415 21.9666 14.3158 22.1214 14.1538C22.2763 13.9918 22.492 13.8983 22.7112 13.8983C22.9304 13.8983 23.1459 13.9918 23.3009 14.1538C23.4558 14.3158 23.5452 14.5415 23.5452 14.7708C23.5452 15.0002 23.4558 15.2245 23.3009 15.3878C23.1441 15.5507 22.9322 15.6425 22.7112 15.6434ZM38.0803 14.8955C37.8611 14.8955 37.6455 14.802 37.4906 14.6399C37.3349 14.4758 37.2471 14.2542 37.2463 14.0229C37.2463 13.7936 37.3357 13.568 37.4906 13.4059C37.6455 13.2439 37.8611 13.1504 38.0803 13.1504C38.2996 13.1504 38.5151 13.2439 38.6701 13.4059C38.825 13.568 38.9143 13.7936 38.9143 14.0229C38.9143 14.2523 38.825 14.4779 38.6701 14.6399C38.5132 14.8028 38.3014 14.8946 38.0803 14.8955ZM10.9961 10.1339C10.7769 10.1339 10.5612 10.0404 10.4063 9.87836C10.2503 9.71444 10.1626 9.49267 10.1621 9.26135C10.1621 9.02995 10.25 8.80804 10.4064 8.64441C10.5628 8.48078 10.7749 8.38885 10.9961 8.38881C11.2153 8.38881 11.4298 8.48105 11.5858 8.64434C11.7407 8.80639 11.8301 9.03075 11.8301 9.26135C11.8301 9.49071 11.7407 9.71507 11.5858 9.87836C11.4288 10.0411 11.2171 10.1328 10.9961 10.1339ZM25.2727 8.85001C25.0535 8.85001 24.8379 8.75653 24.683 8.59448C24.5272 8.43037 24.4395 8.20873 24.4387 7.97747C24.4387 7.74812 24.5281 7.52251 24.683 7.36046C24.8379 7.19842 25.0535 7.10493 25.2727 7.10493C25.4919 7.10493 25.7075 7.19842 25.8625 7.36046C26.0173 7.52251 26.1067 7.74812 26.1067 7.97747C26.1067 8.20683 26.0173 8.43244 25.8625 8.59448C25.7056 8.75739 25.4937 8.84917 25.2727 8.85001ZM17.1914 11.8827C16.9702 11.8827 16.7581 11.7907 16.6017 11.6271C16.4453 11.4635 16.3575 11.2416 16.3574 11.0102C16.3574 10.7808 16.4456 10.5564 16.6017 10.3932C16.7565 10.2311 16.971 10.1376 17.1914 10.1376C17.4106 10.1376 17.6251 10.2311 17.7812 10.3932C17.9367 10.5574 18.0244 10.779 18.0254 11.0102C18.0254 11.2395 17.936 11.4651 17.7812 11.6272C17.6245 11.7904 17.4125 11.8822 17.1914 11.8827Z" fill="#D2153D"/>
</svg>
