<svg width="88" height="87" viewBox="0 0 88 87" fill="none" xmlns="http://www.w3.org/2000/svg">
<path d="M65.5 2H86V82.5C85.0409 84.2434 84.3257 84.8742 82.5 85C80.4702 84.6467 79.8614 84.0537 79.5 82.5V72.5C79.1114 71.4758 78.6987 70.9789 77 70.5C75.7445 70.7182 75.1908 71.1332 74.5 72.5V76.5C73.9428 78.03 73.3373 78.5034 72 79C70.5363 78.3936 69.8024 77.9495 69 76.5V64.5C66.7353 63.5678 65.6165 62.8617 65 60L65.5 35M65.5 2H50M65.5 2V35M50 2H46.5C43.2069 7.86812 40.8399 10.432 35.5 13.5L17.5 11.5C9.39598 12.5471 5.86829 13.7781 2 17.5C5.42073 23.228 9.0972 24.3206 17.5 24L35.5 22.5C40.8069 25.6361 43.3012 28.2265 46.5 35H50M50 2V35M50 35H65.5M72 8.5V50M78 6V55.7366M77 59.5V61.5M77 59.5H78H79M77 59.5L79 61.5M77 61.5H78H79M77 61.5L79 59.5M79 61.5V59.5M71 51.5H73M71 51.5V53.5M71 51.5L73 53.5M73 51.5V53.5M73 51.5L71 53.5M73 53.5H71" stroke="#D2153D" stroke-width="3"/>
</svg>
