<svg width="61" height="56" viewBox="0 0 61 56" fill="none" xmlns="http://www.w3.org/2000/svg">
<path d="M17.8935 48.2582C17.6842 48.4771 17.5544 48.7655 17.5265 49.0738C17.4987 49.382 17.5745 49.6908 17.741 49.9468C17.8881 50.173 18.0984 50.3462 18.343 50.4428C18.5877 50.5394 18.8549 50.5547 19.1081 50.4865C19.3614 50.4184 19.5884 50.2702 19.7582 50.0621C19.928 49.8541 20.0323 49.5963 20.0569 49.3239C20.0815 49.0515 20.0252 48.7778 19.8957 48.5402C19.7661 48.3025 19.5696 48.1124 19.3331 47.9959C19.0965 47.8794 18.8313 47.842 18.5737 47.889C18.316 47.9359 18.0785 48.0648 17.8935 48.2582ZM42.5731 48.2582C41.0227 46.7957 39.3706 49.5878 41.1879 50.4254C41.4593 50.5426 41.7612 50.5578 42.0421 50.4685C42.323 50.3791 42.5657 50.1908 42.729 49.9354C42.8922 49.6801 42.9658 49.3734 42.9374 49.0677C42.909 48.7619 42.7803 48.4759 42.5731 48.2582Z" fill="#D2153D"/>
<path d="M56.9208 13.3035C56.5269 13.3035 56.7937 13.9417 55.65 8.99569C55.5356 8.51704 55.561 8.62341 52.7779 5.71162C52.0027 4.91387 51.2021 5.48559 48.5841 6.40301C46.3475 2.95938 46.411 2.86631 45.7883 2.66688C40.4 1.33729 40.2856 1.09797 39.6375 1.60321L35.431 4.90058L31.1356 0.393289C31.0175 0.268669 30.8769 0.169755 30.722 0.102254C30.5672 0.034753 30.4011 0 30.2333 0C30.0656 0 29.8994 0.034753 29.7446 0.102254C29.5897 0.169755 29.4492 0.268669 29.331 0.393289C24.9339 5.00694 26.7894 3.66406 21.4773 6.4296L17.0167 2.93279C16.5592 2.57381 16.7752 2.66688 11.1708 2.66688C10.5989 2.66688 10.8912 2.54721 5.32498 6.92154C4.81665 7.32042 4.8929 7.44008 3.77457 13.3035C3.2739 13.3088 2.77913 13.4171 2.31849 13.6224C1.85785 13.8277 1.44037 14.1259 1.08989 14.5C0.382055 15.2555 -0.0099205 16.2743 0.000190877 17.3322C0.0103023 18.3901 0.421672 19.4004 1.1438 20.141C1.86594 20.8815 2.83968 21.2916 3.85082 21.281L9.49332 42.5544H8.62915C8.2921 42.5544 7.96886 42.6945 7.73053 42.9438C7.49221 43.1931 7.35832 43.5313 7.35832 43.884V49.2023C7.35832 49.5549 7.49221 49.8931 7.73053 50.1425C7.96886 50.3918 8.2921 50.5319 8.62915 50.5319H12.5687C12.8604 52.0347 13.6397 53.3858 14.7746 54.3563C15.9094 55.3267 17.3301 55.8569 18.7958 55.8569C20.2615 55.8569 21.6822 55.3267 22.8171 54.3563C23.9519 53.3858 24.7312 52.0347 25.0229 50.5319H35.4437C35.7354 52.0347 36.5147 53.3858 37.6496 54.3563C38.7844 55.3267 40.2051 55.8569 41.6708 55.8569C43.1365 55.8569 44.5572 55.3267 45.6921 54.3563C46.8269 53.3858 47.6062 52.0347 47.8979 50.5319H51.8375C52.1745 50.5319 52.4978 50.3918 52.7361 50.1425C52.9744 49.8931 53.1083 49.5549 53.1083 49.2023V43.884C53.1083 43.5313 52.9744 43.1931 52.7361 42.9438C52.4978 42.6945 52.1745 42.5544 51.8375 42.5544H50.9733C57.2385 18.9543 56.476 21.281 56.9208 21.281C57.932 21.281 58.9017 20.8608 59.6167 20.1128C60.3316 19.3647 60.7333 18.3502 60.7333 17.2923C60.7333 16.2344 60.3316 15.2199 59.6167 14.4718C58.9017 13.7238 57.932 13.3035 56.9208 13.3035ZM51.4944 8.17135L53.2354 9.99288L54.0233 13.3035H44.5683L45.28 10.3386C49.0544 9.02229 47.6437 9.52753 51.4944 8.17135ZM40.6796 4.11612L44.6954 5.16649L46.0425 7.28053C42.4841 8.51704 43.3356 7.47997 41.9504 13.3035H39.6502L36.5875 10.0992V7.32042L40.6796 4.11612ZM30.2333 3.21201L34.0458 7.20076C34.0458 11.9873 33.6137 10.7374 36.0664 13.3035H29.4581C30.5637 9.80674 30.7289 11.3358 27.9712 5.59196L30.2333 3.21201ZM19.2914 13.3035C20.0667 10.8571 19.4694 11.8144 22.0873 9.07547L25.8998 7.10769L27.6408 10.7507L26.7766 13.3035H19.2914ZM11.5902 5.32604H15.8348L19.4058 8.13146C17.2454 10.3918 17.8935 9.27491 16.61 13.3035H15.7712C13.4456 8.45056 13.5091 8.18465 12.6958 7.98521L9.12477 7.26723L11.5902 5.32604ZM7.07873 9.55412L11.5775 10.4848L12.9246 13.3035H6.36707L7.07873 9.55412ZM9.89998 45.2135H13.7125C11.4123 48.3913 14.3352 47.8727 9.89998 47.8727V45.2135ZM18.7958 53.191C18.0418 53.191 17.3047 52.9571 16.6777 52.5188C16.0507 52.0805 15.5621 51.4576 15.2735 50.7287C14.985 49.9999 14.9095 49.1979 15.0566 48.4241C15.2037 47.6504 15.5668 46.9397 16.1 46.3818C16.6332 45.824 17.3125 45.4441 18.052 45.2902C18.7916 45.1363 19.5582 45.2153 20.2548 45.5172C20.9514 45.8191 21.5469 46.3303 21.9658 46.9863C22.3847 47.6422 22.6083 48.4134 22.6083 49.2023C22.6083 50.2602 22.2066 51.2747 21.4917 52.0228C20.7767 52.7708 19.807 53.191 18.7958 53.191ZM35.4437 47.8727H25.0229C24.8412 46.9064 24.4499 45.9967 23.8791 45.2135H36.5875C36.0168 45.9967 35.6255 46.9064 35.4437 47.8727ZM41.6708 53.191C40.9168 53.191 40.1797 52.9571 39.5527 52.5188C38.9257 52.0805 38.4371 51.4576 38.1485 50.7287C37.86 49.9999 37.7845 49.1979 37.9316 48.4241C38.0787 47.6504 38.4418 46.9397 38.975 46.3818C39.5082 45.824 40.1875 45.4441 40.927 45.2902C41.6666 45.1363 42.4332 45.2153 43.1298 45.5172C43.8264 45.8191 44.4219 46.3303 44.8408 46.9863C45.2597 47.6422 45.4833 48.4134 45.4833 49.2023C45.4833 50.2602 45.0816 51.2747 44.3667 52.0228C43.6517 52.7708 42.682 53.191 41.6708 53.191ZM50.5667 47.8727C46.1569 47.8727 48.9908 48.3514 46.7542 45.2135H50.5667V47.8727ZM48.33 42.5544H12.1367L6.49415 21.281H53.9725L48.33 42.5544ZM56.9208 18.6219H3.54582C3.20877 18.6219 2.88553 18.4818 2.6472 18.2325C2.40887 17.9831 2.27498 17.6449 2.27498 17.2923C2.27498 16.9397 2.40887 16.6015 2.6472 16.3521C2.88553 16.1028 3.20877 15.9627 3.54582 15.9627H56.9208C57.2579 15.9627 57.5811 16.1028 57.8194 16.3521C58.0578 16.6015 58.1917 16.9397 58.1917 17.2923C58.1917 17.6449 58.0578 17.9831 57.8194 18.2325C57.5811 18.4818 57.2579 18.6219 56.9208 18.6219Z" fill="#D2153D"/>
</svg>
