<svg width="61" height="64" viewBox="0 0 61 64" fill="none" xmlns="http://www.w3.org/2000/svg">
<path fill-rule="evenodd" clip-rule="evenodd" d="M60.1253 30.2768L57.4018 29.1846V27.4481C57.4401 16.7899 50.2284 7.28055 39.4391 3.76336V1.31599C39.4391 0.589543 38.8068 0 38.0283 0H22.9296C22.1511 0 21.5189 0.589543 21.5189 1.31599V3.77629C10.7295 7.29348 3.51785 16.8029 3.55611 27.461V29.2109L0.860812 30.2768C0.338586 30.4823 0 30.9599 0 31.4875V38.3957C0 39.1217 0.632218 39.7112 1.41125 39.7112H3.24574V42.3432C3.24574 43.0692 3.87748 43.6588 4.65651 43.6588H9.72239C10.2035 45.3061 10.9103 46.8905 11.8247 48.3693L8.24084 51.7117C7.69327 52.2245 7.69327 53.0536 8.24084 53.5668L14.2378 59.159C14.7878 59.6696 15.6768 59.6696 16.2273 59.159L19.8111 55.8171C21.3931 56.6697 23.0865 57.3275 24.8488 57.7775V62.5014C24.8488 63.2274 25.481 63.817 26.26 63.817H34.7261C35.5051 63.817 36.1374 63.2274 36.1374 62.5014V57.7775C37.9039 57.3289 39.6026 56.6711 41.1889 55.8171L44.7732 59.159C45.3232 59.6696 46.2122 59.6696 46.7626 59.159L52.7596 53.5668C53.3072 53.0536 53.3072 52.2245 52.7596 51.7117L49.1753 48.3693C50.0897 46.8905 50.797 45.3061 51.2781 43.6588H56.3435C57.1225 43.6588 57.7547 43.0692 57.7547 42.3432V39.7112H59.5892C60.3683 39.7112 61 39.1217 61 38.3957V31.4875C60.9971 30.9559 60.6519 30.4783 60.1253 30.2768ZM24.3126 2.6449H36.6171V24.6319H24.3408L24.3126 2.6449ZM50.2479 41.0272H54.9465L54.9327 39.7112H42.0215C41.3778 44.6639 37.1913 48.5669 31.8801 49.168C25.5049 49.8905 19.7097 45.6562 18.9364 39.7112H6.03955V41.0272H10.7381C11.4153 41.0125 12.0064 41.4495 12.1494 42.0663C12.6415 44.1203 13.5305 46.0731 14.7739 47.8297C15.1364 48.3497 15.0589 49.0351 14.5903 49.4744L11.2178 52.6192L15.211 56.3433L18.5835 53.1985C19.055 52.7615 19.7901 52.6892 20.3477 53.0273C22.2424 54.1774 24.3466 54.993 26.556 55.4354C27.2179 55.5683 27.6866 56.1195 27.6708 56.7509V61.2247H33.3148V56.7906C33.2995 56.1591 33.7677 55.6075 34.4296 55.4746C36.6395 55.0313 38.7432 54.2153 40.6384 53.0669C41.196 52.7285 41.9311 52.8012 42.4021 53.2377L45.7746 56.3826L49.8104 52.6455L46.4379 49.5007C45.9697 49.0614 45.8918 48.376 46.2547 47.856C47.4866 46.0887 48.3613 44.127 48.8367 42.0663C48.9792 41.4495 49.5708 41.0125 50.2479 41.0272ZM21.8149 39.7112H39.1851C38.4089 44.1877 33.8877 47.23 29.0878 46.5062C25.3428 45.9417 22.4065 43.2035 21.801 39.7112H21.8149ZM2.80811 37.0798H58.1918V32.3821L55.4687 31.29C54.9465 31.0849 54.6079 30.6073 54.6079 30.0797V27.4477C54.6476 18.2464 48.6406 9.95935 39.4672 6.56567V25.948C39.4672 26.674 38.835 27.2635 38.056 27.2635H22.9296C22.1505 27.2635 21.5188 26.674 21.5188 25.948V6.56567C12.3607 9.96069 6.36087 18.2317 6.39195 27.4214V30.0529C6.39195 30.581 6.05337 31.0586 5.53114 31.2637L2.80811 32.3558V37.0798Z" fill="#D2153D"/>
</svg>
