<svg width="61" height="63" viewBox="0 0 61 63" fill="none" xmlns="http://www.w3.org/2000/svg">
<path d="M53.882 41.5603H57.8547C58.5905 41.5603 59.189 40.9461 59.189 40.1822V30.6456C59.189 30.0983 58.8726 29.6061 58.3884 29.3856L54.6903 27.7043L53.4855 21.3491C53.028 18.9354 50.9693 17.1872 48.5903 17.1872H43.4853V19.4906C43.4853 19.6442 43.4701 19.7977 43.4434 19.9434H48.5903C49.2346 19.9434 49.8217 20.223 50.2449 20.6719H47.5876C47.0615 20.6719 46.6345 21.1129 46.6345 21.6562V28.8107C46.6345 29.3541 47.0615 29.7951 47.5876 29.7951H52.7383C52.8107 29.8502 52.8908 29.9014 52.9747 29.9408L55.7807 31.2126C54.6636 31.3149 53.7829 32.2836 53.7829 33.4648V34.587C53.7829 35.8352 54.7665 36.8511 55.9751 36.8511H56.5203V38.8041H53.3216C52.3685 36.6975 50.2983 35.2288 47.8964 35.2288C45.5479 35.2288 43.512 36.6345 42.5322 38.6741V21.4082C42.1586 21.6877 41.6973 21.8531 41.1978 21.8531H39.8635V31.9489H37.9801V34.7327H39.8635V38.8041H37.9801V41.5603H41.9108C41.9527 43.4621 42.8258 45.1513 44.1716 46.2578H37.027V20.8687H41.1978C41.9337 20.8687 42.5322 20.2506 42.5322 19.4906V5.48494C42.5322 4.72106 41.9337 4.10681 41.1978 4.10681H27.633C26.8972 4.10681 26.2986 4.72106 26.2986 5.48494V12.7299H3.18341C2.4476 12.7299 1.84904 13.3481 1.84904 14.1081V40.1822C1.84904 40.9461 2.4476 41.5603 3.18341 41.5603H5.4366C5.48235 43.4621 6.35541 45.1513 7.69741 46.2578H3.14529C2.40948 46.2578 1.81091 46.8759 1.81091 47.6359V52.9043C1.81091 53.6642 2.40948 54.2824 3.14529 54.2824H4.98673V55.8101C4.98673 57.5111 6.32873 58.8932 7.97573 58.8932H9.85529C11.5023 58.8932 12.8405 57.5111 12.8405 55.8101V54.2824H47.9422V55.8101C47.9422 57.5111 49.2842 58.8932 50.9312 58.8932H52.8107C54.4577 58.8932 55.7997 57.5111 55.7997 55.8101V54.2824H57.6412C58.377 54.2824 58.9755 53.6642 58.9755 52.9043V47.6359C58.9755 46.8759 58.377 46.2578 57.6412 46.2578H51.6212C52.967 45.1513 53.8401 43.4621 53.882 41.5603ZM48.5407 27.8263V22.6406H51.0112L51.991 27.8263H48.5407ZM55.9751 34.8823C55.8188 34.8823 55.6892 34.7484 55.6892 34.587V33.4648C55.6892 33.3034 55.8188 33.1695 55.9751 33.1695H56.5203V34.8823H55.9751ZM28.9674 6.86306H39.8635V18.1125H28.9674V6.86306ZM35.1207 20.8687V46.6515H33.7101V20.8687H35.1207ZM4.51779 15.4862H26.2986V19.4906C26.2986 20.2506 26.8972 20.8687 27.633 20.8687H31.8039V31.9489H4.51779V15.4862ZM6.00085 38.8041H4.51779V34.7327H31.8039V38.8041H29.6155C28.6585 36.6975 26.5922 35.2288 24.1903 35.2288C21.7884 35.2288 19.722 36.6975 18.7651 38.8041H16.8512C15.8943 36.6975 13.8241 35.2288 11.426 35.2288C9.02416 35.2288 6.95398 36.6975 6.00085 38.8041ZM31.8039 41.5603V46.2578H27.9151C29.2609 45.1513 30.134 43.4621 30.1759 41.5603H31.8039ZM27.5148 41.4186C27.5148 41.7729 27.4614 42.1155 27.3661 42.4384C26.9429 43.8362 25.6772 44.8521 24.1903 44.8521C22.9284 44.8521 21.8303 44.1236 21.2661 43.0526C21.0107 42.5683 20.8658 42.0092 20.8658 41.4186C20.8658 39.5246 22.3565 37.9851 24.1903 37.9851C26.0241 37.9851 27.5148 39.5246 27.5148 41.4186ZM20.4655 46.2578H15.1509C16.4967 45.1513 17.3697 43.4621 17.4117 41.5603H18.2047C18.2466 43.4621 19.1197 45.1513 20.4655 46.2578ZM14.7505 41.4186C14.7505 43.3125 13.2599 44.8521 11.426 44.8521C11.3117 44.8521 11.1973 44.8442 11.0867 44.8324H11.0715C10.9647 44.8206 10.858 44.8048 10.755 44.7812C10.675 44.7654 10.5949 44.7418 10.5187 44.7182C10.492 44.7103 10.4653 44.7064 10.4386 44.6985C9.08516 44.2614 8.09773 42.9581 8.09773 41.4186C8.09773 39.5246 9.59223 37.9851 11.426 37.9851C12.7985 37.9851 13.9842 38.8513 14.4875 40.0838C14.5294 40.1782 14.5637 40.2767 14.5942 40.3791C14.5942 40.3869 14.598 40.3909 14.6019 40.3988C14.6972 40.7216 14.7505 41.0642 14.7505 41.4186ZM10.1717 55.8101C10.1717 55.9912 10.0307 56.1369 9.85529 56.1369H7.97573C7.80035 56.1369 7.65548 55.9912 7.65548 55.8101V54.2824H10.1717V55.8101ZM53.131 55.8101C53.131 55.9912 52.9861 56.1369 52.8107 56.1369H50.9312C50.7558 56.1369 50.6109 55.9912 50.6109 55.8101V54.2824H53.131V55.8101ZM56.3068 49.014V51.5261H4.47966V49.014H56.3068ZM47.8964 37.9851C49.7302 37.9851 51.2209 39.5246 51.2209 41.4186C51.2209 42.4856 50.7482 43.4385 50.0085 44.0685C49.4367 44.5568 48.697 44.8521 47.8964 44.8521C46.3829 44.8521 45.1095 43.8047 44.7053 42.3793C44.6215 42.0722 44.5719 41.7533 44.5719 41.4186C44.5719 39.5246 46.0626 37.9851 47.8964 37.9851Z" fill="#D2153D"/>
<path d="M47.8961 42.6155C48.5354 42.6155 49.0554 42.0785 49.0554 41.4177C49.0554 40.7574 48.5354 40.2204 47.8961 40.2204C47.2563 40.2204 46.7363 40.7574 46.7363 41.4177C46.7363 42.0785 47.2563 42.6155 47.8961 42.6155ZM49.694 33.1695C50.2205 33.1695 50.6472 32.7289 50.6472 32.1851C50.6472 31.6413 50.2205 31.2007 49.694 31.2007H47.5876C47.0611 31.2007 46.6345 31.6413 46.6345 32.1851C46.6345 32.7289 47.0611 33.1695 47.5876 33.1695H49.694ZM11.4245 40.2204C10.7852 40.2204 10.2648 40.7574 10.2648 41.4177C10.2648 42.0785 10.7848 42.6155 11.4245 42.6155C12.0643 42.6155 12.5843 42.0785 12.5843 41.4177C12.5843 40.7574 12.0639 40.2204 11.4245 40.2204ZM24.1895 40.2204C23.5502 40.2204 23.0302 40.7574 23.0302 41.4177C23.0302 42.0785 23.5502 42.6155 24.1895 42.6155C24.8293 42.6155 25.3493 42.0785 25.3493 41.4177C25.3493 40.7574 24.8289 40.2204 24.1895 40.2204ZM35.9389 15.4389C35.9389 14.9459 35.7136 14.5104 35.3686 14.2214V12.4866C35.3686 11.9428 34.9419 11.5022 34.4154 11.5022C33.8889 11.5022 33.4623 11.9428 33.4623 12.4866V14.2218C33.1177 14.5104 32.8923 14.9459 32.8923 15.4389C32.8923 16.3063 33.5755 17.0123 34.4154 17.0123C35.2553 17.0123 35.9389 16.3067 35.9389 15.4389Z" fill="#D2153D"/>
<path d="M29.5869 13.1414C29.5869 13.6851 30.0135 14.1257 30.54 14.1257C31.0665 14.1257 31.4932 13.6851 31.4932 13.1414V13.0055C31.4932 11.3411 32.8039 9.98743 34.4154 9.98743C36.027 9.98743 37.3377 11.3411 37.3377 13.0055V13.1414C37.3377 13.6851 37.7643 14.1257 38.2908 14.1257C38.8174 14.1257 39.244 13.6851 39.244 13.1414V13.0055C39.244 10.256 37.0777 8.01868 34.4154 8.01868C31.7532 8.01868 29.5869 10.2556 29.5869 13.0055V13.1414Z" fill="#D2153D"/>
</svg>
