<svg width="70" height="72" viewBox="0 0 70 72" fill="none" xmlns="http://www.w3.org/2000/svg">
<rect width="70" height="72" fill="#D2153D"/>
<path d="M24.7028 50.4C21.7428 50.4 19.3561 49.8933 17.5428 48.88C15.7561 47.84 14.4495 46.3333 13.6228 44.36C12.7961 42.3867 12.3828 39.9733 12.3828 37.12C12.3828 34.2667 12.7961 31.8533 13.6228 29.88C14.4495 27.9067 15.7561 26.4133 17.5428 25.4C19.3561 24.36 21.7428 23.84 24.7028 23.84C29.1295 23.84 32.2895 24.9867 34.1828 27.28C36.0761 29.5467 37.0228 32.8267 37.0228 37.12C37.0228 41.3867 36.0761 44.6667 34.1828 46.96C32.2895 49.2533 29.1295 50.4 24.7028 50.4ZM24.7028 44C26.4361 44 27.6361 43.4267 28.3028 42.28C28.9961 41.1067 29.3428 39.3867 29.3428 37.12C29.3428 34.8267 28.9961 33.1067 28.3028 31.96C27.6361 30.8133 26.4361 30.24 24.7028 30.24C22.9695 30.24 21.7561 30.8133 21.0628 31.96C20.3961 33.1067 20.0628 34.8267 20.0628 37.12C20.0628 39.3867 20.3961 41.1067 21.0628 42.28C21.7561 43.4267 22.9695 44 24.7028 44ZM47.2634 50.4C46.5168 50.4 45.6368 50.3467 44.6234 50.24C43.6368 50.16 42.6501 50.0267 41.6634 49.84C40.7034 49.6267 39.8634 49.36 39.1434 49.04V43C39.7834 43.2933 40.5168 43.5467 41.3434 43.76C42.1968 43.9733 43.0501 44.1333 43.9034 44.24C44.7568 44.3467 45.4768 44.4 46.0634 44.4C47.5301 44.4 48.5968 44.1733 49.2634 43.72C49.9568 43.2667 50.3034 42.5467 50.3034 41.56C50.3034 40.6267 50.0634 39.96 49.5834 39.56C49.1034 39.1333 48.1968 38.92 46.8634 38.92H39.0234V35.48L39.7034 24.24H56.3834L55.8634 30H46.1434L45.9034 33.68H48.8234C51.9434 33.68 54.2501 34.3733 55.7434 35.76C57.2368 37.1467 57.9834 39.1733 57.9834 41.84C57.9834 44.4 57.0901 46.4667 55.3034 48.04C53.5434 49.6133 50.8634 50.4 47.2634 50.4Z" fill="white"/>
</svg>
