<svg width="70" height="72" viewBox="0 0 70 72" fill="none" xmlns="http://www.w3.org/2000/svg">
<rect width="70" height="72" fill="#D2153D"/>
<path d="M20.7263 50.4C17.7663 50.4 15.3796 49.8933 13.5663 48.88C11.7796 47.84 10.4729 46.3333 9.64625 44.36C8.81958 42.3867 8.40625 39.9733 8.40625 37.12C8.40625 34.2667 8.81958 31.8533 9.64625 29.88C10.4729 27.9067 11.7796 26.4133 13.5663 25.4C15.3796 24.36 17.7663 23.84 20.7263 23.84C25.1529 23.84 28.3129 24.9867 30.2063 27.28C32.0996 29.5467 33.0463 32.8267 33.0463 37.12C33.0463 41.3867 32.0996 44.6667 30.2063 46.96C28.3129 49.2533 25.1529 50.4 20.7263 50.4ZM20.7263 44C22.4596 44 23.6596 43.4267 24.3263 42.28C25.0196 41.1067 25.3663 39.3867 25.3663 37.12C25.3663 34.8267 25.0196 33.1067 24.3263 31.96C23.6596 30.8133 22.4596 30.24 20.7263 30.24C18.9929 30.24 17.7796 30.8133 17.0863 31.96C16.4196 33.1067 16.0863 34.8267 16.0863 37.12C16.0863 39.3867 16.4196 41.1067 17.0863 42.28C17.7796 43.4267 18.9929 44 20.7263 44ZM45.9669 50V45.16H34.2469V40.24L46.9669 24.24H53.4869V39.08H55.8069V45.16H53.4869V50H45.9669ZM41.4869 39.4H47.2869V32.4L41.4869 39.4Z" fill="white"/>
</svg>
