<svg width="40" height="40" viewBox="0 0 40 40" fill="none" xmlns="http://www.w3.org/2000/svg">
<g clip-path="url(#clip0_133_41)">
<circle cx="20" cy="20" r="20" fill="white"/>
<path d="M27.1367 16.5938C27.1367 16.7695 27.1367 16.9102 27.1367 17.0859C27.1367 21.9727 23.4453 27.5625 16.6602 27.5625C14.5508 27.5625 12.6172 26.9648 11 25.9102C11.2812 25.9453 11.5625 25.9805 11.8789 25.9805C13.6016 25.9805 15.1836 25.3828 16.4492 24.3984C14.832 24.3633 13.4609 23.3086 13.0039 21.832C13.25 21.8672 13.4609 21.9023 13.707 21.9023C14.0234 21.9023 14.375 21.832 14.6562 21.7617C12.9688 21.4102 11.7031 19.9336 11.7031 18.1406V18.1055C12.1953 18.3867 12.793 18.5273 13.3906 18.5625C12.3711 17.8945 11.7383 16.7695 11.7383 15.5039C11.7383 14.8008 11.9141 14.168 12.2305 13.6406C14.0586 15.8555 16.8008 17.332 19.8594 17.5078C19.7891 17.2266 19.7539 16.9453 19.7539 16.6641C19.7539 14.625 21.4062 12.9727 23.4453 12.9727C24.5 12.9727 25.4492 13.3945 26.1523 14.1328C26.9609 13.957 27.7695 13.6406 28.4727 13.2188C28.1914 14.0977 27.6289 14.8008 26.8555 15.2578C27.5938 15.1875 28.332 14.9766 28.9648 14.6953C28.4727 15.4336 27.8398 16.0664 27.1367 16.5938Z" fill="#001ED3"/>
</g>
<defs>
<clipPath id="clip0_133_41">
<rect width="40" height="40" fill="white"/>
</clipPath>
</defs>
</svg>
