<svg width="40" height="40" viewBox="0 0 40 40" fill="none" xmlns="http://www.w3.org/2000/svg">
<g clip-path="url(#clip0_133_47)">
<circle cx="20" cy="20" r="20" fill="white"/>
<path d="M15.5156 27H12.2461V16.4883H15.5156V27ZM13.8633 15.082C12.8438 15.082 12 14.2031 12 13.1484C12 12.1289 12.8438 11.2852 13.8633 11.2852C14.918 11.2852 15.7617 12.1289 15.7617 13.1484C15.7617 14.2031 14.918 15.082 13.8633 15.082ZM27.7148 27H24.4805V21.9023C24.4805 20.6719 24.4453 19.125 22.7578 19.125C21.0703 19.125 20.8242 20.4258 20.8242 21.7969V27H17.5547V16.4883H20.6836V17.9297H20.7188C21.1758 17.1211 22.2305 16.2422 23.8125 16.2422C27.1172 16.2422 27.75 18.4219 27.75 21.2344V27H27.7148Z" fill="#001ED3"/>
</g>
<defs>
<clipPath id="clip0_133_47">
<rect width="40" height="40" fill="white"/>
</clipPath>
</defs>
</svg>
