<svg width="79" height="88" viewBox="0 0 79 88" fill="none" xmlns="http://www.w3.org/2000/svg">
<path d="M6.5 44V12H4L7 3.5H12L15 12H12.5V44M6.5 44H12.5M6.5 44L2 44.5V48L5 49.5V53.5L2 55.5V80.5L7 86.5H13L17 80.5V55.5L14 53.5V49.5L16.5 48V44.5L12.5 44M8.5 57.5V81M8.5 57.5L11 81M8.5 57.5H9.125M8.5 81L11 57.5M8.5 81H9M11 81V57.5M11 81H10.375M11 57.5H10.375M9.75 81V57.5M9.75 81H9M9.75 81H10.375M9.75 57.5H9.125M9.75 57.5H10.375M9.125 57.5L9 81M10.375 81V57.5" stroke="#D2153D" stroke-width="3"/>
<path d="M36.5 44V12L39 2.5H40L42.5 12V44M36.5 44H42.5M36.5 44L32 44.5V48L35 49.5V53.5L32 55.5V80.5L37 86.5H43L47 80.5V55.5L44 53.5V49.5L46.5 48V44.5L42.5 44M38.5 57.5V81M38.5 57.5L41 81M38.5 57.5H39.125M38.5 81L41 57.5M38.5 81H39M41 81V57.5M41 81H40.375M41 57.5H40.375M39.75 81V57.5M39.75 81H39M39.75 81H40.375M39.75 57.5H39.125M39.75 57.5H40.375M39.125 57.5L39 81M40.375 81V57.5" stroke="#D2153D" stroke-width="3"/>
<path d="M66.5 44V15.5H64.5V2H75V15.5H72.5V44M66.5 44H72.5M66.5 44L62 44.5V48L65 49.5V53.5L62 55.5V80.5L67 86.5H73L77 80.5V55.5L74 53.5V49.5L76.5 48V44.5L72.5 44M68.5 57.5V81M68.5 57.5L71 81M68.5 57.5H69.125M68.5 81L71 57.5M68.5 81H69M71 81V57.5M71 81H70.375M71 57.5H70.375M69.75 81V57.5M69.75 81H69M69.75 81H70.375M69.75 57.5H69.125M69.75 57.5H70.375M69.125 57.5L69 81M70.375 81V57.5" stroke="#D2153D" stroke-width="3"/>
</svg>
