<svg width="80" height="80" viewBox="0 0 80 80" fill="none" xmlns="http://www.w3.org/2000/svg">
<g clip-path="url(#clip0_133_164)">
<rect width="80" height="80" fill="#001ED3"/>
<path d="M53 29C54.625 29 56 30.375 56 32V47C56 52.5625 51.5 57 46 57H45.5C44.625 57 44 56.375 44 55.5V52.5C44 51.6875 44.625 51 45.5 51H46C48.1875 51 50 49.25 50 47V43H45C43.3125 43 42 41.6875 42 40V32C42 30.375 43.3125 29 45 29H53ZM35 29C36.625 29 38 30.375 38 32V47C38 52.5625 33.5 57 28 57H27.5C26.625 57 26 56.375 26 55.5V52.5C26 51.6875 26.625 51 27.5 51H28C30.1875 51 32 49.25 32 47V43H27C25.3125 43 24 41.6875 24 40V32C24 30.375 25.3125 29 27 29H35Z" fill="white"/>
</g>
<defs>
<clipPath id="clip0_133_164">
<rect width="80" height="80" fill="white"/>
</clipPath>
</defs>
</svg>
