<svg width="70" height="72" viewBox="0 0 70 72" fill="none" xmlns="http://www.w3.org/2000/svg">
<rect width="70" height="72" fill="#D2153D"/>
<path d="M25.7575 50.4C22.7975 50.4 20.4108 49.8933 18.5975 48.88C16.8108 47.84 15.5042 46.3333 14.6775 44.36C13.8508 42.3867 13.4375 39.9733 13.4375 37.12C13.4375 34.2667 13.8508 31.8533 14.6775 29.88C15.5042 27.9067 16.8108 26.4133 18.5975 25.4C20.4108 24.36 22.7975 23.84 25.7575 23.84C30.1842 23.84 33.3442 24.9867 35.2375 27.28C37.1308 29.5467 38.0775 32.8267 38.0775 37.12C38.0775 41.3867 37.1308 44.6667 35.2375 46.96C33.3442 49.2533 30.1842 50.4 25.7575 50.4ZM25.7575 44C27.4908 44 28.6908 43.4267 29.3575 42.28C30.0508 41.1067 30.3975 39.3867 30.3975 37.12C30.3975 34.8267 30.0508 33.1067 29.3575 31.96C28.6908 30.8133 27.4908 30.24 25.7575 30.24C24.0242 30.24 22.8108 30.8133 22.1175 31.96C21.4508 33.1067 21.1175 34.8267 21.1175 37.12C21.1175 39.3867 21.4508 41.1067 22.1175 42.28C22.8108 43.4267 24.0242 44 25.7575 44ZM41.4781 50L49.9581 30H39.6781V24.24H58.3981V28.56L49.3181 50H41.4781Z" fill="white"/>
</svg>
