<svg width="70" height="72" viewBox="0 0 70 72" fill="none" xmlns="http://www.w3.org/2000/svg">
<rect width="70" height="72" fill="#D2153D"/>
<path d="M19.1247 50.4C16.1647 50.4 13.778 49.8933 11.9647 48.88C10.178 47.84 8.87135 46.3333 8.04469 44.36C7.21802 42.3867 6.80469 39.9733 6.80469 37.12C6.80469 34.2667 7.21802 31.8533 8.04469 29.88C8.87135 27.9067 10.178 26.4133 11.9647 25.4C13.778 24.36 16.1647 23.84 19.1247 23.84C23.5514 23.84 26.7114 24.9867 28.6047 27.28C30.498 29.5467 31.4447 32.8267 31.4447 37.12C31.4447 41.3867 30.498 44.6667 28.6047 46.96C26.7114 49.2533 23.5514 50.4 19.1247 50.4ZM19.1247 44C20.858 44 22.058 43.4267 22.7247 42.28C23.418 41.1067 23.7647 39.3867 23.7647 37.12C23.7647 34.8267 23.418 33.1067 22.7247 31.96C22.058 30.8133 20.858 30.24 19.1247 30.24C17.3914 30.24 16.178 30.8133 15.4847 31.96C14.818 33.1067 14.4847 34.8267 14.4847 37.12C14.4847 39.3867 14.818 41.1067 15.4847 42.28C16.178 43.4267 17.3914 44 19.1247 44ZM44.2853 50.4C37.0586 50.4 33.4453 46.92 33.4453 39.96V35C33.4453 32.8667 33.9253 30.96 34.8853 29.28C35.8453 27.6 37.232 26.28 39.0453 25.32C40.8586 24.3333 43.0453 23.84 45.6053 23.84C47.0186 23.84 48.2586 23.9333 49.3253 24.12C50.4186 24.28 51.4586 24.5467 52.4453 24.92V30.76C51.5386 30.36 50.5786 30.08 49.5653 29.92C48.5786 29.7333 47.4986 29.64 46.3253 29.64C44.4053 29.64 42.952 30.0133 41.9653 30.76C40.9786 31.48 40.4853 32.3733 40.4853 33.44V34.16C41.1786 33.7067 42.032 33.36 43.0453 33.12C44.0586 32.88 45.0053 32.76 45.8853 32.76C49.0586 32.76 51.3653 33.5067 52.8053 35C54.272 36.4667 55.0053 38.5867 55.0053 41.36C55.0053 43.0933 54.6453 44.6533 53.9253 46.04C53.2053 47.4 52.0586 48.4667 50.4853 49.24C48.912 50.0133 46.8453 50.4 44.2853 50.4ZM44.3253 45.08C45.6586 45.08 46.6453 44.7867 47.2853 44.2C47.952 43.5867 48.2853 42.7333 48.2853 41.64C48.2853 40.4933 47.992 39.6267 47.4053 39.04C46.8453 38.4267 45.8453 38.12 44.4053 38.12C43.7386 38.12 43.072 38.2267 42.4053 38.44C41.7386 38.6533 41.0986 38.9467 40.4853 39.32V41.2C40.4853 42.5333 40.8053 43.52 41.4453 44.16C42.0853 44.7733 43.0453 45.08 44.3253 45.08Z" fill="white"/>
</svg>
