<svg width="56" height="64" viewBox="0 0 56 64" fill="none" xmlns="http://www.w3.org/2000/svg">
<path d="M21.985 30.4437C18.9826 28.7984 16.4092 26.3553 13.2162 25.0589C12.3108 24.7099 11.3576 24.6102 10.3569 24.7099C9.26076 24.8595 8.21232 25.3581 7.40217 26.106C4.44748 28.8981 1.9217 31.9894 0.396698 35.8286C0.0154476 36.7759 -0.0798649 37.8229 0.0631039 38.8201L0.11076 39.0694C0.253729 40.0666 0.634979 41.0638 1.25451 41.8615C3.35138 44.6537 6.35373 46.4985 8.59357 49.141C9.78498 50.5371 11.5959 50.8362 13.4545 50.5869C19.2209 49.839 22.1756 45.3018 24.749 40.7646C26.3694 37.8728 24.6061 31.8897 21.985 30.4437ZM8.35529 38.0722C7.16388 39.5182 7.11623 40.9142 8.16467 42.5097C8.35529 42.8089 8.30764 43.2077 8.0217 43.457C7.73576 43.6565 7.35451 43.6066 7.11623 43.3075C5.7342 41.2632 5.82951 39.1691 7.40217 37.2246C7.64045 36.9255 8.0217 36.9255 8.30764 37.1249C8.59357 37.3742 8.59357 37.8229 8.35529 38.0722ZM12.5967 29.1474C12.5014 29.4964 12.1678 29.7457 11.8342 29.646C10.0709 29.1973 8.83185 29.7956 7.97404 31.4908C7.83107 31.8398 7.40217 31.9395 7.11623 31.79C6.78264 31.6404 6.68732 31.1916 6.83029 30.8925C7.97404 28.6488 9.78498 27.8012 12.1201 28.3995C12.4537 28.4494 12.6444 28.7984 12.5967 29.1474ZM16.4569 42.6593C16.1709 42.8587 15.742 42.759 15.599 42.41C15.4084 42.1108 15.5037 41.6621 15.8373 41.5125C17.41 40.5153 17.8865 39.219 17.41 37.3742C17.3147 37.0252 17.5053 36.6263 17.8389 36.5266C18.1725 36.4269 18.5537 36.6263 18.649 36.9753C19.2686 39.4184 18.5061 41.3629 16.4569 42.6593ZM29.7529 39.8173C29.5147 39.568 29.0858 39.568 28.8475 39.8173C28.6092 40.0666 28.6092 40.5153 28.8475 40.7646L35.8053 48.0441C35.9483 48.1937 36.0912 48.2435 36.2819 48.2435C36.4248 48.2435 36.6154 48.1937 36.7584 48.0441C36.9967 47.7948 36.9967 47.3461 36.7584 47.0968L29.7529 39.8173ZM25.7975 51.1852C25.5592 50.936 25.1303 50.936 24.892 51.1852C24.6537 51.4345 24.6537 51.8833 24.892 52.1326L31.8498 59.412C31.9928 59.5616 32.1358 59.6115 32.3264 59.6115C32.4694 59.6115 32.66 59.5616 32.8029 59.412C33.0412 59.1627 33.0412 58.714 32.8029 58.4647L25.7975 51.1852ZM14.9319 55.3236C14.6936 55.0743 14.2647 55.0743 14.0264 55.3236C13.7881 55.5729 13.7881 56.0216 14.0264 56.2709L20.9842 63.5504C21.1272 63.6999 21.2701 63.7498 21.4608 63.7498C21.6037 63.7498 21.7944 63.6999 21.9373 63.5504C22.1756 63.3011 22.1756 62.8523 21.9373 62.603L14.9319 55.3236ZM42.7631 10.5C40.9045 6.8104 38.6647 3.51968 35.424 1.07658C34.6139 0.478263 33.6608 0.129247 32.7076 0.0295283H32.4694C31.5162 -0.0701905 30.5154 0.0793877 29.61 0.528122C26.5123 1.97404 24.0819 4.61659 21.1272 6.31181C19.5545 7.20928 18.8397 8.95436 18.649 10.8989C17.9819 16.8321 21.4608 20.9206 25.0826 24.6102C27.4178 27.0034 33.3748 26.6046 35.3764 24.2612C37.6162 21.6186 40.4756 19.5744 42.4295 16.6327C43.0014 15.7851 43.335 14.8378 43.3826 13.8406C43.478 12.6439 43.2873 11.4972 42.7631 10.5ZM30.0389 19.2752C27.6084 19.375 25.9881 18.1783 25.2733 15.7851C25.1779 15.4361 25.3686 15.0372 25.7022 14.9375C26.0358 14.8378 26.417 15.0372 26.5123 15.3862C27.0365 17.231 28.1326 18.0288 29.9912 17.929C30.3248 17.929 30.6584 18.1783 30.6584 18.5772C30.6584 18.9262 30.3725 19.2254 30.0389 19.2752ZM32.3264 8.75492C32.0404 8.95436 31.6592 8.9045 31.4209 8.60534C30.3248 7.0597 29.0381 6.66082 27.3701 7.35886C27.0365 7.50843 26.6553 7.309 26.56 6.95998C26.417 6.61097 26.6076 6.21209 26.9412 6.11237C29.1811 5.16504 31.0873 5.76336 32.517 7.80759C32.7076 8.15661 32.6123 8.55548 32.3264 8.75492ZM39.6178 14.738C39.4748 15.0871 39.0459 15.1868 38.76 15.0372C38.4264 14.8876 38.3311 14.4389 38.474 14.1397C39.3319 12.4445 39.0459 11.0484 37.7115 9.80196C37.4256 9.55267 37.4256 9.15379 37.6639 8.85464C37.9022 8.55548 38.2834 8.55548 38.5694 8.80478C40.3326 10.4003 40.7139 12.4944 39.6178 14.738ZM54.8678 22.5161L47.91 15.2366C47.6717 14.9873 47.2428 14.9873 47.0045 15.2366C46.7662 15.4859 46.7662 15.9347 47.0045 16.184L53.9623 23.4634C54.1053 23.613 54.2483 23.6629 54.4389 23.6629C54.6295 23.6629 54.7725 23.613 54.9154 23.4634C55.1061 23.2141 55.1061 22.7654 54.8678 22.5161ZM43.9545 26.6544C43.7162 26.4051 43.2873 26.4051 43.049 26.6544C42.8108 26.9037 42.8108 27.3525 43.049 27.6018L50.0069 34.8812C50.1498 35.0308 50.2928 35.0807 50.4834 35.0807C50.6264 35.0807 50.817 35.0308 50.96 34.8812C51.1983 34.6319 51.1983 34.1832 50.96 33.9339L43.9545 26.6544ZM33.0412 30.7429C32.8029 30.4936 32.374 30.4936 32.1358 30.7429C31.8975 30.9922 31.8975 31.4409 32.1358 31.6902L39.0936 38.9697C39.2365 39.1193 39.3795 39.1691 39.5701 39.1691C39.7131 39.1691 39.9037 39.1193 40.0467 38.9697C40.285 38.7204 40.285 38.2717 40.0467 38.0224L33.0412 30.7429Z" fill="#D2153D"/>
</svg>
